<svg width="31" height="31" viewBox="0 0 31 31" fill="none" xmlns="http://www.w3.org/2000/svg">
<path d="M3.94316 2.48002C2.80034 2.58734 1.88258 3.49704 1.86035 4.60158C2.11002 12.0879 4.48011 18.1156 8.78691 22.2425C13.0937 26.3694 19.2762 28.5331 26.951 28.52C28.2104 28.5256 29.0783 27.4615 29.1016 26.3887C29.1143 24.6199 29.128 22.8468 29.1403 21.08C29.1403 19.8457 28.0217 19.0447 26.9897 19.0359C25.4001 19.0421 23.1837 18.4644 21.3904 18.0188C21.0842 17.9448 20.7426 18.0395 20.5185 18.2609L17.5638 21.1284C14.0044 18.991 12.374 17.416 10.1819 13.9694L13.1172 11.131C13.3548 10.9014 13.455 10.5393 13.3691 10.2203C12.8858 8.41105 12.089 6.05365 12.2163 4.39816C12.0904 3.10573 10.864 2.4731 9.89129 2.48004C7.82083 2.48001 5.71564 2.48006 3.94316 2.48002H3.94316ZM3.95284 4.34002C5.94422 4.34002 7.94144 4.34002 9.93002 4.34002C10.2304 4.34572 10.2304 4.34572 10.3756 4.62096C10.3204 6.61639 10.9754 8.63226 11.4219 10.1816L8.34127 13.1847C8.04117 13.4761 7.97756 13.9807 8.19596 14.3375C10.8458 18.6328 12.8108 20.5387 17.2247 23.1144C17.5719 23.3162 18.0501 23.2579 18.3388 22.9787L21.4485 19.9466C23.1351 20.3727 25.1587 20.9033 26.9994 20.8959C27.1328 20.921 27.2643 21.11 27.2803 21.1284L27.2416 26.3791C27.1769 26.5304 27.2803 26.6657 26.8928 26.66C19.5962 26.66 13.9657 24.6237 10.0753 20.8959C6.17441 17.158 3.95816 11.6648 3.72034 4.53377C3.72035 4.34573 3.72035 4.34573 3.95284 4.34002Z" fill="#69A54D"/>
</svg>
