<svg width="27" height="27" viewBox="0 0 27 27" fill="none" xmlns="http://www.w3.org/2000/svg">
<g clip-path="url(#clip0_68_98)">
<path d="M16.7708 16.5374C19.6753 13.6329 19.6753 8.92369 16.7708 6.01917C13.8663 3.11464 9.15711 3.11464 6.25259 6.01917C3.34807 8.92369 3.34807 13.6329 6.25259 16.5374C9.15711 19.4419 13.8663 19.4419 16.7708 16.5374ZM17.6136 18.6417C13.8569 21.7623 8.27169 21.5617 4.74999 18.04C1.0156 14.3056 1.0156 8.25095 4.74999 4.51657C8.48437 0.782177 14.539 0.782177 18.2734 4.51657C21.6818 7.92497 21.9793 13.2662 19.166 17.0121L23.4465 21.2926C23.8845 21.7306 23.8865 22.4388 23.4441 22.8812C23.0048 23.3205 22.2882 23.3163 21.8555 22.8836L17.6136 18.6417Z" fill="white"/>
</g>
<defs>
<clipPath id="clip0_68_98">
<rect width="27" height="27" fill="white"/>
</clipPath>
</defs>
</svg>
